<?xml version="1.0" standalone="no"?>
<!DOCTYPE svg PUBLIC "-//W3C//DTD SVG 1.1//EN" "http://www.w3.org/Graphics/SVG/1.1/DTD/svg11.dtd">
<svg xmlns="http://www.w3.org/2000/svg" width="1811" height="301" viewBox="0 0 1811 301" fill="none">
<path d="M178.193 256.054L183.345 261.206L290.021 154.539L284.869 149.388L178.193 256.054Z" fill="#002C4E"/>
<path d="M151.22 283.933C73.0312 283.933 9.38892 220.297 9.38892 142.115C9.38892 63.933 73.0312 0.599609 150.917 0.599609C229.106 0.599609 292.445 64.236 292.445 142.115C292.749 220.297 229.106 283.933 151.22 283.933ZM151.22 9.69052C78.1832 9.69052 18.7837 69.0845 18.7837 142.418C18.7837 215.751 78.1832 274.842 151.22 274.842C224.257 274.842 283.657 215.448 283.657 142.418C283.657 69.0845 224.257 9.69052 151.22 9.69052Z" fill="#002C4E"/>
<path d="M22.4204 85.4483L71.5159 187.266L78.1832 184.236L29.0877 82.418L22.4204 85.4483Z" fill="#002C4E"/>
<mask id="mask0_674_23681" style="mask-type:luminance" maskUnits="userSpaceOnUse" x="42" y="26" width="235" height="234">
<path d="M276.08 26.0537H42.7251V259.387H276.08V26.0537Z" fill="white"/>
</mask>
<g mask="url(#mask0_674_23681)">
<path d="M84.8503 206.053L173.04 275.75L177.586 269.993L89.3962 200.296L84.8503 206.053Z" fill="#002C4E"/>
<path d="M176.98 147.569L177.889 154.842L278.505 140.903L277.596 133.63L176.98 147.569Z" fill="#002C4E"/>
<path d="M88.4871 185.145L91.8207 191.811L150.008 162.72L146.674 156.054L88.4871 185.145Z" fill="#002C4E"/>
<path d="M26.3601 76.3568L28.1785 83.3265L157.887 49.9931L156.069 43.0234L26.3601 76.3568Z" fill="#002C4E"/>
<path d="M155.766 139.084H163.04V76.9629H155.766V139.084Z" fill="#002C4E"/>
<path d="M168.191 63.9327L279.414 134.236L283.354 128.175L172.131 57.8721L168.191 63.9327Z" fill="#002C4E"/>
<path d="M85.4565 176.357L91.8208 179.993L164.252 57.8717L157.887 54.2354L85.4565 176.357Z" fill="#002C4E"/>
<path d="M178.798 69.9933C182.738 65.4478 184.86 59.6903 184.86 53.3266C184.86 39.0842 173.343 27.8721 159.403 27.8721C145.159 27.8721 133.946 39.3872 133.946 53.3266C133.946 56.3569 134.552 59.0842 135.461 61.8115C137.279 66.963 140.613 71.2054 144.856 74.2357C149.099 77.266 153.948 78.7812 159.403 78.7812C167.282 79.0842 174.253 75.4478 178.798 69.9933Z" fill="#D06086"/>
<path d="M184.557 150.296C183.041 137.872 172.131 128.175 159.403 128.175C145.159 128.175 133.946 139.69 133.946 153.629C133.946 157.872 134.855 161.508 136.673 165.144C140.916 173.629 149.402 179.387 159.403 179.387C173.646 179.387 184.86 167.872 184.86 153.932C184.86 152.417 184.86 151.508 184.557 150.296Z" fill="#0090B9"/>
<path d="M103.034 202.418C103.943 199.69 104.549 196.66 104.549 193.63C104.549 189.387 103.64 185.751 101.822 182.114C99.7002 177.872 96.3665 174.236 92.1237 171.508C88.1839 169.084 83.9411 167.872 79.0922 167.872C64.8484 167.872 53.6353 179.387 53.6353 193.327C53.6353 207.569 65.1515 218.781 79.0922 218.781C90.3053 219.387 99.7001 212.418 103.034 202.418Z" fill="#002C4E"/>
</g>
<path d="M51.5142 83.3269C51.5142 79.0845 50.605 75.4481 48.7866 71.8118C44.5438 63.3269 36.0582 57.5693 26.0573 57.5693C11.8135 57.5693 0.600342 69.0845 0.600342 83.0239C0.600342 96.9633 12.1166 108.478 26.0573 108.478C31.2092 108.478 36.0582 106.963 39.9979 104.539C46.9683 99.9936 51.5142 92.1148 51.5142 83.3269Z" fill="#002C4E"/>
<path d="M286.687 164.539C300.931 164.539 312.144 153.024 312.144 139.084C312.144 124.842 300.628 113.63 286.687 113.63C279.717 113.63 273.656 116.357 269.11 120.6C264.261 125.145 261.23 131.812 261.23 139.084C261.23 140.297 261.23 141.509 261.534 142.418C262.14 148.175 264.867 153.024 268.807 156.963C273.353 161.509 279.414 164.539 286.687 164.539Z" fill="#002C4E"/>
<path d="M167.282 300.6C181.526 300.6 192.739 289.085 192.739 275.145C192.739 268.176 190.012 261.812 185.163 256.963C180.617 252.418 174.253 249.388 166.979 249.388C161.827 249.388 156.978 250.903 153.039 253.327C148.493 256.357 144.856 260.903 143.038 266.054C142.129 268.782 141.522 271.812 141.522 274.842C141.826 289.085 153.342 300.6 167.282 300.6Z" fill="#002C4E"/>
<path d="M589.14 109.993C580.048 105.448 569.744 103.023 557.925 103.023C543.378 103.023 530.65 106.357 519.739 113.023C513.072 116.963 507.314 122.114 503.071 127.872C499.435 122.114 494.889 117.266 489.434 113.326C479.433 106.66 467.31 103.023 453.673 103.023C441.55 103.023 430.64 105.448 421.245 110.599C415.184 113.933 409.729 118.175 405.486 123.629V104.842H372.756V251.811H407.002V177.266C407.002 167.266 408.517 159.084 411.548 152.72C414.881 146.357 419.427 141.508 424.882 138.175C430.64 134.842 437.308 133.326 444.884 133.326C455.491 133.326 463.674 136.66 469.432 143.023C475.19 149.387 477.917 159.084 477.917 172.114V251.811H512.163V177.266C512.163 167.266 513.678 159.084 516.709 152.72C520.043 146.357 524.588 141.508 530.043 138.175C535.802 134.842 542.469 133.326 550.045 133.326C560.652 133.326 568.835 136.66 574.593 143.023C580.351 149.387 583.079 159.084 583.079 172.114V251.811H617.324V167.569C617.324 152.72 614.9 140.599 609.748 131.205C605.505 121.811 598.535 114.539 589.14 109.993Z" fill="#0F1113"/>
<path d="M764.61 112.417C753.397 106.054 740.669 103.023 726.425 103.023C711.878 103.023 698.544 106.357 687.028 112.72C675.511 119.084 666.723 128.175 660.055 139.387C653.691 150.599 650.357 163.629 650.357 178.175C650.357 192.72 653.691 205.448 660.358 216.963C667.026 228.478 676.724 237.266 688.543 243.933C700.968 250.296 715.212 253.629 731.577 253.629C744.306 253.629 755.822 251.508 765.823 247.569C775.824 243.326 784.309 237.266 790.977 229.69L772.49 208.478C767.338 213.933 761.58 217.872 754.913 220.599C748.245 223.023 740.972 224.539 732.486 224.539C723.091 224.539 714.606 222.72 707.029 219.084C699.756 215.448 693.998 210.296 690.058 203.326C687.634 199.084 685.815 194.236 684.906 189.387H800.068C800.371 187.872 800.371 186.054 800.371 184.236C800.674 182.417 800.674 180.902 800.674 179.387C800.674 163.933 797.341 150.599 790.977 139.084C784.612 127.569 775.824 118.781 764.61 112.417ZM689.149 151.508C692.786 144.842 697.635 139.69 703.999 136.054C710.363 132.417 717.939 130.599 726.425 130.599C734.608 130.599 741.881 132.417 748.245 136.054C754.61 139.69 759.762 144.842 763.398 151.205C766.126 155.751 767.641 160.902 768.247 166.357H684.603C685.512 160.902 687.028 156.054 689.149 151.508Z" fill="#0F1113"/>
<path d="M943.112 123.024C938.869 118.175 934.323 114.539 928.868 111.509C919.17 106.054 908.26 103.327 895.835 103.327C881.591 103.327 868.863 106.357 857.649 112.721C846.436 119.084 837.648 127.569 831.283 138.781C824.919 149.994 821.586 163.024 821.586 178.478C821.586 193.63 824.919 206.963 831.283 218.175C837.648 229.388 846.436 238.175 857.649 244.539C869.166 250.903 881.894 253.933 895.835 253.933C908.563 253.933 919.776 251.206 929.474 245.751C935.232 242.418 940.384 238.175 944.627 233.024V252.115H977.358V47.5693H943.112V123.024ZM937.657 202.721C933.717 209.691 928.565 215.145 921.898 218.781C915.534 222.418 908.26 224.236 899.775 224.236C891.592 224.236 884.016 222.418 877.348 218.781C870.984 215.145 865.832 209.691 861.589 202.721C857.65 195.751 855.831 187.569 855.831 178.175C855.831 168.781 857.65 160.6 861.589 153.63C865.529 146.66 870.984 141.206 877.348 137.569C884.016 133.933 891.289 132.115 899.775 132.115C907.957 132.115 915.231 133.933 921.898 137.569C928.565 141.206 933.717 146.66 937.657 153.63C941.597 160.297 943.718 168.478 943.718 178.175C943.718 187.569 941.597 195.751 937.657 202.721Z" fill="#0F1113"/>
<path d="M1142.22 112.418C1131.31 106.054 1118.58 103.024 1104.04 103.024C1092.22 103.024 1081.31 105.751 1071.31 111.206C1065.85 114.236 1061.3 117.872 1057.06 122.721V47.5693H1022.82V251.509H1055.55V232.418C1060.09 237.872 1064.94 242.115 1071 245.448C1080.7 250.903 1091.91 253.63 1104.34 253.63C1118.89 253.63 1131.61 250.6 1142.52 244.236C1153.74 237.872 1162.53 229.084 1168.89 217.872C1175.56 206.66 1178.89 193.63 1178.89 178.175C1178.89 163.024 1175.56 149.691 1168.89 138.478C1162.22 127.569 1153.43 118.781 1142.22 112.418ZM1137.68 202.721C1133.74 209.69 1128.58 215.145 1121.92 218.781C1115.55 222.418 1108.28 224.236 1099.79 224.236C1091.61 224.236 1084.03 222.418 1077.37 218.781C1070.7 215.145 1065.55 209.69 1061.61 202.721C1057.67 195.751 1055.85 187.569 1055.85 178.175C1055.85 168.781 1057.67 160.6 1061.61 153.63C1065.55 146.66 1070.7 141.206 1077.37 137.569C1084.03 133.933 1091.31 132.115 1099.79 132.115C1107.98 132.115 1115.25 133.933 1121.92 137.569C1128.58 141.206 1133.74 146.66 1137.68 153.63C1141.62 160.297 1143.43 168.478 1143.43 178.175C1143.43 187.569 1141.62 195.751 1137.68 202.721Z" fill="#0F1113"/>
<path d="M1317.69 112.72C1305.87 106.357 1292.54 103.023 1277.39 103.023C1262.23 103.023 1248.9 106.357 1237.08 112.72C1225.26 119.084 1216.17 128.175 1209.2 139.387C1202.53 150.599 1198.89 163.629 1198.89 178.175C1198.89 192.72 1202.23 205.448 1209.2 216.963C1215.86 228.478 1225.26 237.266 1237.08 243.933C1248.9 250.296 1262.23 253.629 1277.39 253.629C1292.54 253.629 1306.18 250.296 1317.69 243.933C1329.51 237.266 1338.91 228.478 1345.57 216.963C1352.24 205.448 1355.88 192.72 1355.88 178.175C1355.88 163.326 1352.54 150.296 1345.57 139.084C1338.6 127.872 1329.51 119.084 1317.69 112.72ZM1314.96 202.72C1311.33 209.69 1306.18 215.145 1299.51 218.781C1292.84 222.417 1285.27 224.236 1277.08 224.236C1268.9 224.236 1261.32 222.417 1254.66 218.781C1248.29 215.145 1243.14 209.69 1239.2 202.72C1235.26 195.751 1233.44 187.569 1233.44 178.175C1233.44 168.781 1235.26 160.599 1239.2 153.629C1243.14 146.66 1248.29 141.205 1254.66 137.569C1261.32 133.933 1268.9 132.114 1277.08 132.114C1285.27 132.114 1292.84 133.933 1299.51 137.569C1306.18 141.205 1311.33 146.66 1314.96 153.629C1318.9 160.296 1320.72 168.478 1320.72 178.175C1320.72 187.569 1318.9 195.751 1314.96 202.72Z" fill="#0F1113"/>
<path d="M1491.95 118.478C1480.43 108.175 1464.07 103.023 1442.86 103.023C1431.04 103.023 1419.82 104.539 1408.61 107.569C1397.7 110.599 1388.3 115.145 1380.43 120.902L1393.76 146.054C1399.22 141.508 1405.88 137.872 1413.76 135.448C1421.94 133.023 1430.13 131.508 1438.31 131.508C1450.73 131.508 1459.83 134.236 1465.89 139.993C1471.95 145.448 1474.98 153.326 1474.98 163.326V165.751H1437.1C1422.25 165.751 1410.43 167.569 1401.34 171.508C1392.24 175.448 1385.88 180.599 1381.94 187.266C1378 193.933 1376.18 201.205 1376.18 209.69C1376.18 218.175 1378.3 225.751 1382.85 232.417C1387.4 239.084 1393.76 244.236 1402.25 248.175C1410.43 251.811 1420.13 253.629 1431.04 253.629C1444.07 253.629 1454.67 251.205 1463.16 246.357C1469.22 243.023 1473.77 238.781 1477.1 233.63V251.508H1509.53V165.448C1509.53 144.236 1503.47 128.781 1491.95 118.478ZM1460.43 222.72C1453.77 226.66 1446.19 228.478 1438.01 228.478C1429.22 228.478 1422.25 226.66 1417.4 223.023C1412.55 219.387 1409.82 214.539 1409.82 208.175C1409.82 202.72 1411.94 198.175 1415.88 194.539C1419.82 190.599 1427.7 188.781 1439.52 188.781H1474.98V205.751C1472.25 213.326 1467.4 219.084 1460.43 222.72Z" fill="#0F1113"/>
<path d="M1586.2 126.357V104.842H1553.47V251.811H1587.72V180.296C1587.72 165.145 1591.66 153.933 1599.23 146.357C1606.81 138.781 1617.42 134.842 1630.45 134.842C1631.66 134.842 1632.87 134.842 1634.39 135.145C1635.6 135.145 1637.12 135.448 1638.63 135.751V103.023C1624.39 103.023 1612.57 105.448 1603.17 110.599C1596.2 114.539 1590.45 119.69 1586.2 126.357Z" fill="#0F1113"/>
<path d="M1775.92 47.5693V123.024C1771.67 118.175 1767.13 114.539 1761.67 111.509C1751.98 106.054 1741.07 103.327 1728.64 103.327C1714.4 103.327 1701.67 106.357 1690.45 112.721C1679.24 119.084 1670.45 127.569 1664.09 138.781C1657.72 149.994 1654.39 163.024 1654.39 178.478C1654.39 193.63 1657.72 206.963 1664.09 218.175C1670.45 229.388 1679.24 238.175 1690.45 244.539C1701.97 250.903 1714.7 253.933 1728.64 253.933C1741.37 253.933 1752.58 251.206 1762.28 245.751C1768.04 242.418 1773.19 238.175 1777.43 233.024V252.115H1810.16V47.5693H1775.92ZM1770.46 202.721C1766.52 209.691 1761.37 215.145 1754.7 218.781C1748.34 222.418 1741.07 224.236 1732.58 224.236C1724.4 224.236 1716.82 222.418 1710.15 218.781C1703.79 215.145 1698.64 209.691 1694.39 202.721C1690.45 195.751 1688.64 187.569 1688.64 178.175C1688.64 168.781 1690.45 160.6 1694.39 153.63C1698.33 146.66 1703.79 141.206 1710.15 137.569C1716.82 133.933 1724.09 132.115 1732.58 132.115C1740.76 132.115 1748.04 133.933 1754.7 137.569C1761.37 141.206 1766.52 146.66 1770.46 153.63C1774.4 160.297 1776.52 168.478 1776.52 178.175C1776.52 187.569 1774.4 195.751 1770.46 202.721Z" fill="#0F1113"/>
</svg>
